<svg xmlns="http://www.w3.org/2000/svg" viewBox="0 0 1200 760" role="img">
<defs>
  <linearGradient id="bg" x1="0" y1="0" x2="1" y2="1"><stop offset="0" stop-color="#f8fafc"/><stop offset="1" stop-color="#e9eef5"/></linearGradient>
  <linearGradient id="navy" x1="0" y1="0" x2="1" y2="1"><stop offset="0" stop-color="#173b63"/><stop offset="1" stop-color="#0b223d"/></linearGradient>
  <linearGradient id="blue" x1="0" y1="0" x2="1" y2="1"><stop offset="0" stop-color="#86a7c9"/><stop offset="1" stop-color="#537ba7"/></linearGradient>
  <filter id="shadow" x="-30%" y="-30%" width="160%" height="160%"><feDropShadow dx="0" dy="18" stdDeviation="18" flood-color="#10243c" flood-opacity=".13"/></filter>
  <filter id="soft" x="-30%" y="-30%" width="160%" height="160%"><feGaussianBlur stdDeviation="20"/></filter>
</defs>
<rect width="1200" height="760" rx="38" fill="url(#bg)"/>
<circle cx="1030" cy="115" r="135" fill="#dbe6f0" opacity=".65"/>
<circle cx="130" cy="650" r="105" fill="#d9e4ef" opacity=".45"/>
<g opacity=".24" fill="#163a63"></g>
<g filter="url(#shadow)">
 <rect x="140" y="160" width="920" height="430" rx="34" fill="#fff"/>
 <rect x="190" y="210" width="420" height="300" rx="22" fill="#eef3f7"/>
 <rect x="235" y="258" width="332" height="190" rx="18" fill="url(#navy)"/>
 <rect x="270" y="291" width="262" height="125" rx="11" fill="#f8fafc"/>
 <path d="M304 378l52-49 46 25 61-59" fill="none" stroke="#18794e" stroke-width="9" stroke-linecap="round" stroke-linejoin="round"/>
 <rect x="666" y="218" width="306" height="38" rx="19" fill="#173b63"/>
 <rect x="666" y="288" width="260" height="12" rx="6" fill="#c7d2dd"/>
 <rect x="666" y="322" width="306" height="12" rx="6" fill="#d7e0e7"/>
 <rect x="666" y="356" width="230" height="12" rx="6" fill="#d7e0e7"/>
 <rect x="666" y="421" width="146" height="56" rx="16" fill="#edf3f7"/>
 <rect x="830" y="421" width="142" height="56" rx="16" fill="#edf3f7"/>
</g>
<g transform="translate(440 489)" filter="url(#shadow)"><ellipse cx="160" cy="68" rx="152" ry="32" fill="#d3dee7"/><path d="M52 0h216l-24 67H76z" fill="#173b63"/><rect x="75" y="16" width="170" height="27" rx="13" fill="#98afc4"/></g>
<g transform="translate(905 116)" filter="url(#shadow)"><circle cx="72" cy="72" r="66" fill="#fff"/><path d="M45 74l17 18 39-46" fill="none" stroke="#18794e" stroke-width="13" stroke-linecap="round" stroke-linejoin="round"/></g>
</svg>