<svg xmlns="http://www.w3.org/2000/svg" viewBox="0 0 1200 760" role="img">
<defs>
  <linearGradient id="bg" x1="0" y1="0" x2="1" y2="1"><stop offset="0" stop-color="#f8fafc"/><stop offset="1" stop-color="#e9eef5"/></linearGradient>
  <linearGradient id="navy" x1="0" y1="0" x2="1" y2="1"><stop offset="0" stop-color="#173b63"/><stop offset="1" stop-color="#0b223d"/></linearGradient>
  <linearGradient id="blue" x1="0" y1="0" x2="1" y2="1"><stop offset="0" stop-color="#86a7c9"/><stop offset="1" stop-color="#537ba7"/></linearGradient>
  <filter id="shadow" x="-30%" y="-30%" width="160%" height="160%"><feDropShadow dx="0" dy="18" stdDeviation="18" flood-color="#10243c" flood-opacity=".13"/></filter>
  <filter id="soft" x="-30%" y="-30%" width="160%" height="160%"><feGaussianBlur stdDeviation="20"/></filter>
</defs>
<rect width="1200" height="760" rx="38" fill="url(#bg)"/>
<circle cx="1030" cy="115" r="135" fill="#dbe6f0" opacity=".65"/>
<circle cx="130" cy="650" r="105" fill="#d9e4ef" opacity=".45"/>
<g opacity=".24" fill="#163a63"></g>
<g filter="url(#shadow)">
 <rect x="175" y="240" width="630" height="330" rx="30" fill="#173b63"/>
 <rect x="235" y="178" width="570" height="330" rx="28" fill="#fff"/>
 <rect x="292" y="230" width="245" height="20" rx="10" fill="#173b63"/>
 <rect x="292" y="275" width="425" height="12" rx="6" fill="#d4dee7"/>
 <rect x="292" y="309" width="365" height="12" rx="6" fill="#dde5ec"/>
 <g fill="#eef3f7"><rect x="292" y="365" width="192" height="90" rx="16"/><rect x="505" y="365" width="212" height="90" rx="16"/></g>
 <path d="M333 429l28-31 25 20 49-48" fill="none" stroke="#18794e" stroke-width="10" stroke-linecap="round" stroke-linejoin="round"/>
</g>
<g transform="translate(760 175) rotate(6 120 170)" filter="url(#shadow)"><rect width="255" height="355" rx="25" fill="#f8fafc"/><rect x="38" y="53" width="156" height="18" rx="9" fill="#7b9dba"/><rect x="38" y="102" width="178" height="10" rx="5" fill="#d5dfe7"/><rect x="38" y="134" width="145" height="10" rx="5" fill="#dfe6ec"/><rect x="38" y="190" width="70" height="70" rx="14" fill="#e8eff5"/><rect x="125" y="190" width="91" height="70" rx="14" fill="#e8eff5"/><path d="M78 306l23 23 53-60" fill="none" stroke="#18794e" stroke-width="14" stroke-linecap="round" stroke-linejoin="round"/></g>
</svg>