<svg xmlns="http://www.w3.org/2000/svg" viewBox="0 0 1200 760" role="img">
<defs>
  <linearGradient id="bg" x1="0" y1="0" x2="1" y2="1"><stop offset="0" stop-color="#f8fafc"/><stop offset="1" stop-color="#e9eef5"/></linearGradient>
  <linearGradient id="navy" x1="0" y1="0" x2="1" y2="1"><stop offset="0" stop-color="#173b63"/><stop offset="1" stop-color="#0b223d"/></linearGradient>
  <linearGradient id="blue" x1="0" y1="0" x2="1" y2="1"><stop offset="0" stop-color="#86a7c9"/><stop offset="1" stop-color="#537ba7"/></linearGradient>
  <filter id="shadow" x="-30%" y="-30%" width="160%" height="160%"><feDropShadow dx="0" dy="18" stdDeviation="18" flood-color="#10243c" flood-opacity=".13"/></filter>
  <filter id="soft" x="-30%" y="-30%" width="160%" height="160%"><feGaussianBlur stdDeviation="20"/></filter>
</defs>
<rect width="1200" height="760" rx="38" fill="url(#bg)"/>
<circle cx="1030" cy="115" r="135" fill="#dbe6f0" opacity=".65"/>
<circle cx="130" cy="650" r="105" fill="#d9e4ef" opacity=".45"/>
<g opacity=".24" fill="#163a63"></g>
<g filter="url(#shadow)">
 <rect x="135" y="170" width="525" height="420" rx="30" fill="#fff"/>
 <rect x="180" y="216" width="210" height="19" rx="10" fill="#173b63"/>
 <rect x="180" y="258" width="425" height="12" rx="6" fill="#d0dae3"/>
 <rect x="180" y="290" width="355" height="12" rx="6" fill="#dbe3ea"/>
 <g transform="translate(180 344)"><rect width="425" height="176" rx="18" fill="#f2f5f8"/><path d="M0 58h425M0 116h425M142 0v176M284 0v176" stroke="#d6e0e8" stroke-width="2"/><rect x="308" y="74" width="80" height="24" rx="12" fill="#dce7f0"/><rect x="308" y="132" width="80" height="24" rx="12" fill="#dce7f0"/></g>
</g>
<g filter="url(#shadow)">
 <rect x="704" y="205" width="320" height="366" rx="28" fill="url(#navy)"/>
 <rect x="748" y="260" width="232" height="118" rx="16" fill="#eef3f8"/>
 <circle cx="864" cy="319" r="38" fill="#fff"/>
 <path d="M864 288v62M844 301c10-8 34-8 41 4 8 15-27 19-27 33 0 10 12 14 28 9" stroke="#163a63" stroke-width="8" fill="none" stroke-linecap="round"/>
 <g fill="#8eadca"><rect x="748" y="420" width="65" height="65" rx="13"/><rect x="832" y="420" width="65" height="65" rx="13"/><rect x="916" y="420" width="65" height="65" rx="13"/></g>
</g>
<g transform="translate(620 105)" filter="url(#shadow)"><rect width="210" height="126" rx="20" fill="#fff"/><rect x="30" y="31" width="150" height="14" rx="7" fill="#173b63"/><rect x="30" y="63" width="112" height="10" rx="5" fill="#c4d0dc"/><circle cx="167" cy="91" r="16" fill="#18794e"/></g>
</svg>